<!-- Generated by IcoMoon.io -->
<svg version="1.1" xmlns="http://www.w3.org/2000/svg" width="1067" height="1024" viewBox="0 0 1067 1024">
<title></title>
<g id="icomoon-ignore">
</g>
<path d="M676.749 612.753c-11.379-84.625-64.363-156.689-141.739-192.77-77.372-36.078-166.641-30.346-238.775 15.332l-173.83 110.059c-28.843 18.261-50.575 44.757-62.851 76.608-12.278 31.859-13.937 66.082-4.806 98.982 9.147 32.905 28.233 61.372 55.187 82.334 26.958 20.958 59.255 32.444 93.399 33.203l2.231 0.038c85.641 2.517 167.016 40.798 223.558 105.25 14.588 16.619 32.119 29.76 51.733 38.903 10.662 4.975 21.956 8.764 33.711 11.298 33.382 7.181 67.46 3.503 98.551-10.637 31.074-14.144 56.239-37.419 72.759-67.298 16.521-29.888 22.848-63.565 18.3-97.408l-27.43-203.895zM588.262 926.716c-39.548 17.988-85.363 8.141-114.014-24.512-34.052-38.818-75.643-69.675-121.638-91.123-45.953-21.427-96.314-33.455-147.899-34.598l-1.469-0.030c-42.816-1.553-79.147-30.157-90.662-71.552-11.611-41.852 5.236-85.577 41.933-108.817l173.838-110.054c54.772-34.679 122.538-39.031 181.286-11.639 58.748 27.396 98.982 82.108 107.627 146.364l27.426 203.895c5.786 43.068-16.892 84.083-56.427 102.067z"></path>
<path d="M222.78 400.853c35.299 2.461 69.29-11.057 95.72-38.067 25.141-25.705 40.441-60.826 43.070-98.908 2.612-38.064-7.72-74.949-29.086-103.868-22.461-30.378-54.265-48.449-89.524-50.865-70.908-4.92-133.149 56.516-138.755 136.992-4.387 64.088 28.472 121.158 77.859 144.187 12.611 5.88 26.3 9.539 40.716 10.53zM164.085 250.267c3.304-47.422 36.826-83.873 74.744-81.242 6.849 0.47 13.507 2.221 19.773 5.143 9.672 4.51 18.431 11.81 25.606 21.526 12.91 17.459 19.116 40.214 17.479 64.061-1.652 23.858-10.916 45.536-26.097 61.050-13.914 14.217-31.194 21.383-48.643 20.168l-0.035 0.001c-37.882-2.596-66.064-43.296-62.826-90.706z"></path>
<path d="M475.362 368.928c75.166 35.051 168.811-6.105 208.742-91.744 39.945-85.66 11.285-183.863-63.881-218.915-75.162-35.048-168.802 6.126-208.747 91.786-39.934 85.639-11.276 183.825 63.885 218.872zM594.859 112.669c45.167 21.062 60.804 83.488 34.846 139.148-25.941 55.639-83.81 83.773-128.977 62.711s-60.796-83.467-34.85-139.106c25.954-55.66 83.814-83.815 128.981-62.753z"></path>
<path d="M693.065 516.851h0.009c9.775 9.229 20.715 16.563 32.461 22.042 54.818 25.562 126.844 10.577 175.825-41.237 28.198-29.82 44.83-67.503 46.827-106.095 2.095-40.391-11.887-76.943-39.369-102.929-27.49-25.973-64.789-37.883-105.003-33.516-38.421 4.178-75.098 22.9-103.275 52.733-59.469 62.919-62.818 156.677-7.475 209.004zM744.162 349.076c18.402-19.478 41.886-31.647 66.142-34.284 22.438-2.441 42.786 3.763 57.284 17.463 14.485 13.703 21.82 33.656 20.651 56.197-1.263 24.358-12.087 48.497-30.502 67.971-36.736 38.865-92.109 46.404-123.435 16.806-31.292-29.594-26.871-85.286 9.86-124.152z"></path>
<path d="M988.582 632.614l-0.013-0.030c-33.98-62.464-119.245-82.018-190.089-43.575-70.818 38.49-100.851 120.627-66.961 183.083 12.356 22.784 31.543 39.872 54.37 50.513 39.787 18.556 90.65 17.549 135.727-6.895 70.814-38.49 100.855-120.623 66.965-183.095zM892.983 762.957c-41.822 22.677-90.577 13.935-108.702-19.494-18.121-33.387 1.109-79.019 42.85-101.709 27.733-15.049 58.547-16.247 81.451-5.564 11.584 5.402 21.15 13.841 27.255 25.075 18.086 33.399-1.143 79.014-42.854 101.692z"></path>
</svg>
